<svg width="24" height="31" viewBox="0 0 24 31" fill="none" xmlns="http://www.w3.org/2000/svg">
<path fill-rule="evenodd" clip-rule="evenodd" d="M22 5.87427C22 6.28848 21.6642 6.62427 21.25 6.62427L6.75 6.62427C6.33579 6.62427 6 6.28848 6 5.87427C6 5.46005 6.33579 5.12427 6.75 5.12427L21.25 5.12427C21.6642 5.12427 22 5.46006 22 5.87427ZM22 14.8417C22 15.2559 21.6642 15.5917 21.25 15.5917L6.75 15.5916C6.33579 15.5916 6 15.2559 6 14.8416C6 14.4274 6.33579 14.0916 6.75 14.0916L21.25 14.0917C21.6642 14.0917 22 14.4274 22 14.8417ZM21.25 24.559C21.6642 24.559 22 24.2232 22 23.809C22 23.3948 21.6642 23.059 21.25 23.059L6.75 23.059C6.33579 23.059 6 23.3948 6 23.809C6 24.2232 6.33579 24.559 6.75 24.559L21.25 24.559Z" fill="#008ECC"/>
<circle cx="3" cy="5" r="1" fill="#008ECC"/>
<circle cx="3" cy="12" r="1" fill="#008ECC"/>
<circle cx="3" cy="19" r="1" fill="#008ECC"/>
</svg>
